# xmcd
#
# Track frame offsets: 
#        150
#        10387
#        25915
#        38500
#        47255
#        59460
#        75783
#        87760
#        104730
#        113937
#        130475
#        141615
#        155464
#        170447
#        188605
#        205545
#        229547
#        239417
#        260067
#        289107
#        308140
#
# Disc length: 4346 seconds
#
# Revision: 0
# Processed by: cddbd v1.5.2PL0 Copyright (c) Steve Scherf et al.
# Submitted via: ExactAudioCopyFreeDBPlugin 1.0
#
DISCID=1810f815
DTITLE=The Rolling Stones - Stone Age
DYEAR=1971
DGENRE=Rock
TTITLE0=Look What You've Done
TTITLE1=It's All Over Now
TTITLE2=Confessin' The Blues
TTITLE3=One More Try
TTITLE4=As Tears Go By
TTITLE5=The Spider And The Fly
TTITLE6=My Girl
TTITLE7=Paint It, Black
TTITLE8=If You Need Me
TTITLE9=The Last Time
TTITLE10=Blue Turns To Grey
TTITLE11=Around And Around
TTITLE12=Brown Sugar
TTITLE13=Bitch
TTITLE14=Rocks Off
TTITLE15=Gimme Shelter
TTITLE16=Don't Lie To Me
TTITLE17=Tumbling Dice
TTITLE18=Love In Vain
TTITLE19=Sweet Virginia
TTITLE20=All Down The Line
EXTD=
EXTT0=
EXTT1=
EXTT2=
EXTT3=
EXTT4=
EXTT5=
EXTT6=
EXTT7=
EXTT8=
EXTT9=
EXTT10=
EXTT11=
EXTT12=
EXTT13=
EXTT14=
EXTT15=
EXTT16=
EXTT17=
EXTT18=
EXTT19=
EXTT20=
PLAYORDER=
